<svg width="397" height="54" viewBox="0 0 397 54" fill="none" xmlns="http://www.w3.org/2000/svg">
<g clip-path="url(#clip0_4111_6620)">
<path d="M39.264 26.4626L51.2313 18.6143L36.8891 18.7535L41.3977 5.17193L29.7922 13.6975L25.6175 0.00463867L21.4707 13.7903L9.85589 5.19048L14.4387 18.8184L0.115036 18.6329L11.7669 26.7966L0.207806 35.1088L14.5872 34.8676L9.95793 48.4491L21.5913 39.6174L25.6082 53.5515L29.9313 39.6824L41.3328 48.5326L36.4438 34.8027L51.1014 35.1645L39.264 26.4626ZM45.7672 20.3305L37.891 25.4515L35.3027 23.5497L36.3324 20.4511L45.7672 20.3305ZM38.4569 9.24453L35.2656 18.772L31.3414 18.8091L30.2931 15.3766L38.4569 9.24453ZM25.6082 5.73782L28.3542 14.7458L25.5526 16.8053L22.8715 14.82L25.6082 5.73782ZM13.1492 9.70838L20.9605 15.4694L19.9307 18.8833L16.1457 18.837L13.1492 9.70838ZM5.82967 20.4511H15.0046L16.09 23.6888L13.2977 25.6927L5.82967 20.4511ZM5.36582 33.4111L13.1771 27.7707L16.2663 29.9322L15.1623 33.1699L5.36582 33.4111ZM13.2977 43.8477L16.4704 34.8491L20.1997 34.7841L21.0996 37.9197L13.2977 43.8477ZM25.701 47.707L23.0478 38.5227L25.7752 36.454L28.4099 38.4949L25.701 47.707ZM28.9201 36.7416L25.8031 34.3481L22.5561 36.8158L21.4614 33.0215L17.0827 33.1328L18.4278 29.3014L14.6985 26.6853L17.964 24.3197L16.693 20.4604H21.1831L22.3706 16.5084L25.6175 18.9019L28.8737 16.4528L30.1169 20.5346L34.6997 20.4697L33.4473 24.1991L36.4252 26.407L32.7144 28.8283L34.0225 32.7617L30.1632 32.5484L28.9201 36.7416ZM37.5014 43.3097L30.4787 37.929L31.4899 34.6728L34.6626 34.747L37.5014 43.3097ZM35.7573 32.8638L34.5698 29.5333L37.7797 27.4275L45.8507 33.4297L35.7573 32.8638Z" fill="#AD976F"/>
<path d="M78.7914 10.3949L71.9357 20.6831L65.0893 10.3949H55.8494L68.0858 28.7726L68.1043 28.7633V42.3078H75.7764V28.7633L75.7857 28.7726L83.6433 16.9723H92.1688V42.2985H99.8409V16.9723H108.821V10.3949H78.7914Z" fill="white"/>
<path d="M131.578 10.3949V16.9815H137.301L131.578 22.7333V29.6539C131.578 30.4889 131.476 31.3238 131.262 32.1309C131.058 32.8916 130.715 33.6059 130.232 34.2275C129.741 34.8583 129.101 35.3593 128.368 35.6933C126.596 36.4169 124.62 36.4169 122.848 35.6933C122.124 35.3686 121.493 34.8583 121.011 34.2275C120.538 33.5966 120.195 32.8916 119.981 32.1309C119.749 31.3238 119.638 30.4889 119.647 29.6539V10.3949H112.012V16.9815H117.69L112.012 22.6869V30.2755C111.985 32.0659 112.309 33.8471 112.959 35.5263C113.552 37.057 114.471 38.4392 115.649 39.5803C116.874 40.7399 118.33 41.6398 119.916 42.215C123.572 43.4767 127.551 43.4767 131.206 42.215C132.811 41.6398 134.286 40.7399 135.539 39.5803C136.745 38.4485 137.682 37.057 138.303 35.5263C138.962 33.8564 139.296 32.0752 139.268 30.2755V10.3949H131.578Z" fill="white"/>
<path d="M154.17 17.8944V22.3474H151.711V17.9408L147.416 11.1871H150.283L152.955 15.6679L155.663 11.1871H158.447L154.17 17.8944Z" fill="white"/>
<path d="M160.098 22.3474V11.1871H162.556V22.3474H160.098Z" fill="white"/>
<path d="M165.339 22.3474V11.1871H167.798V20.1302H173.364V22.3474H165.339Z" fill="white"/>
<path d="M185.072 18.9613C184.793 19.6292 184.376 20.2322 183.856 20.7332C183.309 21.2434 182.669 21.6423 181.973 21.9114C181.203 22.2082 180.396 22.3474 179.57 22.3381H175.219V11.1871H179.57C180.387 11.1779 181.203 11.3263 181.973 11.6139C182.669 11.8736 183.309 12.2726 183.856 12.7828C184.376 13.2837 184.793 13.8775 185.072 14.5454C185.359 15.2412 185.508 15.9834 185.498 16.7348V16.7626C185.508 17.5233 185.359 18.2655 185.072 18.9613ZM182.929 16.7626C182.938 16.2988 182.845 15.8349 182.678 15.4082C182.52 15.0093 182.288 14.6475 182.001 14.3413C181.704 14.0352 181.342 13.8033 180.943 13.6456C180.507 13.4786 180.043 13.3951 179.57 13.3951H177.669V20.1302H179.57C180.034 20.1395 180.507 20.056 180.943 19.889C181.342 19.7405 181.704 19.5086 182.001 19.2118C182.298 18.9056 182.53 18.5531 182.678 18.1635C182.845 17.7274 182.929 17.2729 182.929 16.809V16.7626Z" fill="white"/>
<path d="M187.799 22.3474V11.1871H190.257V22.3474H187.799Z" fill="white"/>
<path d="M192.707 22.3474V20.4827L198.848 13.3394H192.901V11.1871H202.011V13.0518L195.87 20.1951H202.011V22.3474H192.707Z" fill="white"/>
<path d="M214.173 13.4507V22.3474H211.715V13.4507H208.32V11.1871H217.569V13.4507H214.173Z" fill="white"/>
<path d="M219.452 22.3474V11.1871H227.857V13.3672H221.873V15.6308H227.133V17.8109H221.873V20.158H227.931V22.3381L219.452 22.3474Z" fill="white"/>
<path d="M237.338 22.3474L233.878 17.5975L232.588 18.9334V22.3474H230.13V11.1871H232.588V16.0668L237.116 11.1871H240.084L235.538 15.9184L240.288 22.3474H237.338Z" fill="white"/>
<path d="M249.602 22.3474L244.194 15.2505V22.3474H241.773V11.1871H244.036L249.268 18.0614V11.1871H251.69V22.3474H249.602Z" fill="white"/>
<path d="M266.941 22.3474L263.481 17.5975L262.191 18.9334V22.3474H259.733V11.1871H262.191V16.0668L266.718 11.1871H269.687L265.141 15.9184L269.891 22.3474H266.941Z" fill="white"/>
<path d="M296.813 22.3474L291.377 15.2505V22.3474H288.937V11.1871H291.219L296.479 18.0614V11.1871H298.919V22.3474H296.813Z" fill="white"/>
<path d="M314.04 22.4309H311.86L307.315 11.1871H310.042L312.983 19.054L315.914 11.1871H318.577L314.04 22.4309Z" fill="white"/>
<path d="M320.961 22.3474V11.1871H329.422V13.3765H323.401V15.6401H328.698V17.8202H323.401V20.1673H329.496V22.3566L320.961 22.3474Z" fill="white"/>
<path d="M339.172 22.3474L336.769 18.7757H334.83V22.3474H332.362V11.1871H337.502C338.624 11.1222 339.738 11.4654 340.628 12.1612C341.389 12.8477 341.797 13.8496 341.742 14.8701V14.9072C341.779 15.6958 341.537 16.475 341.074 17.1151C340.619 17.6903 340.016 18.1263 339.33 18.3675L342.066 22.3566H339.172V22.3474ZM339.227 15C339.255 14.5454 339.07 14.1001 338.717 13.8032C338.3 13.5157 337.799 13.3765 337.289 13.4043H334.83V16.6049H337.335C337.845 16.642 338.337 16.4843 338.736 16.1689C339.06 15.8813 339.246 15.4545 339.227 15.0185V15Z" fill="white"/>
<path d="M352.419 20.5198C352.225 20.9373 351.937 21.3083 351.575 21.6052C351.195 21.9114 350.75 22.134 350.276 22.2732C349.738 22.4309 349.172 22.5144 348.607 22.5051C347.744 22.5051 346.9 22.3566 346.083 22.0691C345.248 21.7722 344.488 21.3176 343.838 20.7239L345.295 18.9891C345.777 19.388 346.306 19.7127 346.872 19.9817C347.428 20.2322 348.031 20.3528 348.644 20.3435C349.061 20.3621 349.469 20.2693 349.84 20.0652C350.109 19.8982 350.276 19.6107 350.267 19.2952V19.2581C350.267 19.1097 350.239 18.9613 350.184 18.8314C350.1 18.6922 349.989 18.5716 349.84 18.4881C349.618 18.3583 349.386 18.2469 349.145 18.1727C348.848 18.0707 348.467 17.9593 347.994 17.8387C347.475 17.7181 346.955 17.5604 346.445 17.3749C346.028 17.2265 345.629 17.0131 345.267 16.7441C344.942 16.4936 344.692 16.1782 344.515 15.8071C344.33 15.3711 344.237 14.8979 344.246 14.4155V14.3877C344.237 13.9146 344.339 13.4414 344.534 13.0054C344.719 12.5972 344.998 12.2354 345.341 11.9479C345.703 11.6417 346.13 11.4098 346.575 11.2706C347.085 11.1036 347.623 11.0294 348.161 11.0294C348.931 11.0202 349.701 11.1408 350.434 11.3912C351.121 11.6324 351.761 11.9942 352.336 12.4395L351.056 14.2857C350.592 13.9702 350.1 13.7012 349.581 13.4786C349.126 13.2837 348.625 13.1817 348.133 13.1817C347.753 13.1539 347.373 13.2559 347.048 13.46C346.825 13.6177 346.686 13.8775 346.686 14.1558V14.1929C346.686 14.3599 346.714 14.5176 346.788 14.666C346.881 14.8144 347.011 14.9443 347.169 15.0278C347.41 15.1577 347.66 15.2597 347.92 15.334C348.235 15.4267 348.634 15.5381 349.117 15.6679C349.636 15.7978 350.146 15.9648 350.638 16.1689C351.046 16.3359 351.427 16.5585 351.761 16.8368C352.058 17.0873 352.299 17.4027 352.456 17.7553C352.623 18.1542 352.698 18.5809 352.688 19.0169V19.0448C352.725 19.555 352.623 20.056 352.419 20.5198Z" fill="white"/>
<path d="M366.632 13.4507V22.3566H364.164V13.4507H360.741V11.1871H370.046V13.4507H366.632Z" fill="white"/>
<path d="M372.588 22.3474V11.1871H381.048V13.3765H375.027V15.6401H380.325V17.8202H375.027V20.1673H381.122V22.3566L372.588 22.3474Z" fill="white"/>
<path d="M391.8 20.5198C391.605 20.9373 391.318 21.3083 390.956 21.6052C390.576 21.9114 390.13 22.134 389.657 22.2732C389.119 22.4309 388.553 22.5144 387.987 22.5051C387.125 22.5051 386.28 22.3566 385.464 22.0691C384.629 21.7722 383.868 21.3176 383.219 20.7239L384.685 18.9891C385.167 19.388 385.696 19.7127 386.262 19.9817C386.818 20.2322 387.421 20.3528 388.034 20.3435C388.451 20.3621 388.859 20.2693 389.231 20.0652C389.5 19.8982 389.667 19.6107 389.657 19.2952V19.2489C389.657 19.1004 389.629 18.952 389.574 18.8221C389.49 18.683 389.379 18.5624 389.231 18.4789C389.008 18.349 388.776 18.2377 388.535 18.1634C388.238 18.0614 387.857 17.9501 387.384 17.8295C386.865 17.7089 386.345 17.5512 385.835 17.3656C385.418 17.2172 385.019 17.0038 384.657 16.7348C384.332 16.4843 384.082 16.1689 383.905 15.7978C383.72 15.3618 383.627 14.8887 383.636 14.4063V14.3877C383.627 13.9146 383.729 13.4414 383.924 13.0054C384.119 12.5972 384.388 12.2354 384.731 11.9479C385.093 11.6417 385.52 11.4098 385.965 11.2706C386.475 11.1036 387.013 11.0294 387.551 11.0294C388.321 11.0202 389.091 11.1408 389.824 11.3912C390.511 11.6324 391.151 11.9942 391.726 12.4395L390.437 14.2857C389.973 13.9702 389.481 13.7012 388.961 13.4786C388.507 13.2837 388.006 13.1817 387.514 13.1817C387.134 13.1539 386.754 13.2559 386.429 13.46C386.206 13.6177 386.067 13.8775 386.067 14.1558V14.1929C386.067 14.3599 386.095 14.5176 386.169 14.666C386.262 14.8144 386.392 14.9443 386.549 15.0278C386.791 15.1577 387.041 15.2597 387.301 15.334C387.616 15.4267 388.015 15.5381 388.498 15.6679C389.017 15.7978 389.527 15.9648 390.019 16.1689C390.427 16.3359 390.808 16.5585 391.142 16.8368C391.438 17.0873 391.68 17.4027 391.837 17.7553C392.004 18.1542 392.079 18.5809 392.069 19.0169V19.0448C392.106 19.555 392.004 20.056 391.8 20.5198Z" fill="white"/>
<path d="M254.482 11.1871V13.7105H256.393L254.482 15.6401V22.3474H256.94V11.1871H254.482Z" fill="white"/>
<path d="M394.426 11.2242V13.7476H396.337L394.426 15.6772V22.3845H396.884V11.2242H394.426Z" fill="white"/>
<path d="M355.499 11.2242V13.7476H357.41L355.499 15.6772V22.3845H357.958V11.2242H355.499Z" fill="white"/>
<path d="M302.37 11.2242V13.7476H304.281L302.37 15.6772V22.3845H304.828V11.2242H302.37Z" fill="white"/>
<path d="M283.296 11.1871V13.6362H285.208L283.296 15.4452V17.579C283.352 18.3026 283.12 19.0262 282.656 19.5921C282.183 20.0559 281.534 20.2971 280.875 20.26C280.207 20.2971 279.558 20.0466 279.094 19.5642C278.621 18.9798 278.398 18.2469 278.454 17.4955V11.1778H275.986V13.627H278.027L275.986 15.5658V17.5604C275.689 19.991 277.415 22.2082 279.845 22.505C280.179 22.5422 280.513 22.5514 280.847 22.5143C281.543 22.5236 282.23 22.4216 282.888 22.1989C283.473 22.0134 284.001 21.6887 284.447 21.2619C284.892 20.8166 285.226 20.2786 285.43 19.6941C285.671 18.9798 285.792 18.2283 285.773 17.4769V11.1778H283.296V11.1871Z" fill="white"/>
<path d="M148.359 30.0459H149.438L153.15 38.9591H153.24L156.952 30.0459H158.031V40.278H157.152V32.0193H157.072L153.62 40.278H152.77L149.318 32.0193H149.238V40.278H148.359V30.0459ZM160.767 40.278H159.788L163.51 30.0459H164.509L168.231 40.278H167.252L164.044 31.2599H163.974L160.767 40.278ZM161.471 36.356H166.547V37.1954H161.471V36.356ZM168.17 30.8852V30.0459H175.589V30.8852H172.347V40.278H171.412V30.8852H168.17ZM177.693 40.278V30.0459H183.628V30.8852H178.627V34.7373H183.313V35.5766H178.627V39.4387H183.728V40.278H177.693ZM186.046 30.0459H187.125L190.838 38.9591H190.928L194.64 30.0459H195.719V40.278H194.84V32.0193H194.76L191.307 40.278H190.458L187.006 32.0193H186.926V40.278H186.046V30.0459ZM198.454 40.278H197.475L201.197 30.0459H202.196L205.919 40.278H204.939L201.732 31.2599H201.662L198.454 40.278ZM199.159 36.356H204.235V37.1954H199.159V36.356ZM205.857 30.8852V30.0459H213.277V30.8852H210.034V40.278H209.1V30.8852H205.857ZM216.314 30.0459V40.278H215.38V30.0459H216.314ZM215.845 28.7269C215.665 28.7269 215.508 28.6652 215.375 28.542C215.245 28.4154 215.18 28.2639 215.18 28.0873C215.18 27.9108 215.245 27.7609 215.375 27.6377C215.508 27.5111 215.665 27.4478 215.845 27.4478C216.028 27.4478 216.184 27.5111 216.314 27.6377C216.448 27.7609 216.514 27.9108 216.514 28.0873C216.514 28.2639 216.448 28.4154 216.314 28.542C216.184 28.6652 216.028 28.7269 215.845 28.7269ZM219.035 40.278V30.0459H219.969V35.5566H220.059L225.055 30.0459H226.284L221.913 34.7772L226.264 40.278H225.125L221.333 35.4267L219.969 36.9556V40.278H219.035ZM232.005 30.0459H233.084L236.796 38.9591H236.886L240.598 30.0459H241.678V40.278H240.798V32.0193H240.718L237.266 40.278H236.417L232.964 32.0193H232.884V40.278H232.005V30.0459ZM251.218 30.0459H252.152V36.8207C252.152 37.5168 251.989 38.1397 251.662 38.6893C251.336 39.2355 250.881 39.6668 250.298 39.9833C249.719 40.2964 249.044 40.4529 248.275 40.4529C247.509 40.4529 246.834 40.2947 246.252 39.9783C245.669 39.6618 245.214 39.2305 244.888 38.6843C244.561 38.138 244.398 37.5168 244.398 36.8207V30.0459H245.332V36.7557C245.332 37.2987 245.454 37.7833 245.697 38.2096C245.94 38.6326 246.282 38.9657 246.721 39.2089C247.164 39.452 247.682 39.5736 248.275 39.5736C248.868 39.5736 249.386 39.452 249.829 39.2089C250.272 38.9657 250.613 38.6326 250.853 38.2096C251.096 37.7833 251.218 37.2987 251.218 36.7557V30.0459ZM246.996 28.7269C246.826 28.7269 246.676 28.6636 246.546 28.537C246.42 28.4071 246.356 28.2572 246.356 28.0873C246.356 27.9075 246.42 27.7559 246.546 27.6327C246.676 27.5095 246.826 27.4478 246.996 27.4478C247.179 27.4478 247.331 27.5095 247.451 27.6327C247.574 27.7559 247.635 27.9075 247.635 28.0873C247.635 28.2572 247.574 28.4071 247.451 28.537C247.331 28.6636 247.179 28.7269 246.996 28.7269ZM249.554 28.7269C249.384 28.7269 249.234 28.6636 249.104 28.537C248.978 28.4071 248.915 28.2572 248.915 28.0873C248.915 27.9075 248.978 27.7559 249.104 27.6327C249.234 27.5095 249.384 27.4478 249.554 27.4478C249.737 27.4478 249.889 27.5095 250.009 27.6327C250.132 27.7559 250.194 27.9075 250.194 28.0873C250.194 28.2572 250.132 28.4071 250.009 28.537C249.889 28.6636 249.737 28.7269 249.554 28.7269ZM254.867 40.278V30.0459H255.802V34.7373H261.607V30.0459H262.542V40.278H261.607V35.5766H255.802V40.278H254.867ZM265.255 40.278V30.0459H271.19V30.8852H266.189V34.7373H270.875V35.5766H266.189V39.4387H271.29V40.278H265.255ZM281.577 30.0459V40.278H280.668L274.622 31.7096H274.542V40.278H273.608V30.0459H274.512L280.578 38.6243H280.658V30.0459H281.577ZM287.295 40.278H284.298V30.0459H287.475C288.451 30.0459 289.285 30.249 289.978 30.6554C290.674 31.0617 291.207 31.6446 291.577 32.4041C291.947 33.1635 292.132 34.0744 292.132 35.137C292.132 36.2095 291.942 37.1304 291.562 37.8999C291.186 38.6659 290.636 39.2538 289.913 39.6635C289.194 40.0732 288.321 40.278 287.295 40.278ZM285.232 39.4387H287.24C288.12 39.4387 288.856 39.2655 289.449 38.9191C290.041 38.5727 290.486 38.0781 290.783 37.4352C291.079 36.7924 291.227 36.0263 291.227 35.137C291.224 34.2543 291.077 33.4949 290.788 32.8587C290.501 32.2225 290.075 31.7346 289.509 31.3948C288.946 31.0551 288.25 30.8852 287.42 30.8852H285.232V39.4387ZM295.33 30.0459V40.278H294.396V30.0459H295.33ZM294.861 28.7269C294.681 28.7269 294.524 28.6652 294.391 28.542C294.261 28.4154 294.196 28.2639 294.196 28.0873C294.196 27.9108 294.261 27.7609 294.391 27.6377C294.524 27.5111 294.681 27.4478 294.861 27.4478C295.044 27.4478 295.2 27.5111 295.33 27.6377C295.464 27.7609 295.53 27.9108 295.53 28.0873C295.53 28.2639 295.464 28.4154 295.33 28.542C295.2 28.6652 295.044 28.7269 294.861 28.7269ZM303.607 32.6039C303.55 32.0343 303.298 31.5813 302.852 31.2449C302.406 30.9085 301.845 30.7403 301.168 30.7403C300.692 30.7403 300.272 30.8219 299.909 30.9851C299.55 31.1483 299.267 31.3748 299.06 31.6646C298.857 31.9511 298.755 32.2775 298.755 32.6439C298.755 32.9137 298.814 33.1502 298.93 33.3533C299.047 33.5565 299.203 33.7314 299.4 33.8779C299.6 34.0212 299.819 34.1444 300.059 34.2476C300.302 34.3509 300.547 34.4375 300.794 34.5074L301.873 34.8172C302.199 34.9071 302.526 35.0221 302.852 35.1619C303.179 35.3018 303.477 35.4784 303.746 35.6915C304.02 35.9014 304.238 36.1595 304.401 36.466C304.567 36.7691 304.651 37.1338 304.651 37.5601C304.651 38.1064 304.509 38.5977 304.226 39.034C303.943 39.4703 303.537 39.8167 303.007 40.0732C302.477 40.3263 301.843 40.4529 301.103 40.4529C300.407 40.4529 299.803 40.338 299.29 40.1082C298.777 39.875 298.374 39.5536 298.081 39.1439C297.788 38.7342 297.623 38.2596 297.586 37.72H298.545C298.579 38.123 298.712 38.4644 298.945 38.7442C299.178 39.024 299.481 39.2372 299.854 39.3837C300.227 39.527 300.644 39.5986 301.103 39.5986C301.613 39.5986 302.066 39.5136 302.462 39.3438C302.862 39.1706 303.175 38.9307 303.402 38.6243C303.632 38.3145 303.746 37.9548 303.746 37.5451C303.746 37.1987 303.656 36.9089 303.477 36.6758C303.297 36.4393 303.045 36.2411 302.722 36.0812C302.402 35.9214 302.031 35.7798 301.608 35.6566L300.384 35.2968C299.581 35.057 298.958 34.7256 298.515 34.3026C298.072 33.8796 297.851 33.34 297.851 32.6838C297.851 32.1343 297.997 31.6513 298.291 31.2349C298.587 30.8153 298.987 30.4888 299.49 30.2557C299.996 30.0192 300.564 29.901 301.193 29.901C301.83 29.901 302.392 30.0175 302.882 30.2507C303.372 30.4839 303.76 30.8053 304.046 31.215C304.336 31.6213 304.491 32.0843 304.511 32.6039H303.607ZM306.899 40.278V30.0459H307.833V39.4387H312.71V40.278H306.899ZM315.747 30.0459V40.278H314.813V30.0459H315.747ZM315.278 28.7269C315.098 28.7269 314.941 28.6652 314.808 28.542C314.678 28.4154 314.613 28.2639 314.613 28.0873C314.613 27.9108 314.678 27.7609 314.808 27.6377C314.941 27.5111 315.098 27.4478 315.278 27.4478C315.461 27.4478 315.617 27.5111 315.747 27.6377C315.88 27.7609 315.947 27.9108 315.947 28.0873C315.947 28.2639 315.88 28.4154 315.747 28.542C315.617 28.6652 315.461 28.7269 315.278 28.7269ZM325.547 33.2434C325.454 32.9037 325.317 32.5856 325.138 32.2891C324.958 31.9894 324.735 31.7279 324.468 31.5047C324.205 31.2782 323.9 31.1017 323.554 30.9751C323.211 30.8486 322.828 30.7853 322.405 30.7853C321.739 30.7853 321.142 30.9585 320.616 31.3049C320.09 31.6513 319.673 32.1509 319.367 32.8037C319.064 33.4566 318.912 34.2427 318.912 35.1619C318.912 36.0779 319.066 36.8623 319.372 37.5152C319.678 38.168 320.098 38.6693 320.631 39.019C321.167 39.3654 321.78 39.5386 322.47 39.5386C323.099 39.5386 323.655 39.3987 324.138 39.1189C324.621 38.8391 324.998 38.4394 325.267 37.9198C325.541 37.4002 325.674 36.7824 325.667 36.0663L325.967 36.1612H322.689V35.3218H326.576V36.1612C326.576 37.0339 326.4 37.7883 326.047 38.4245C325.694 39.0606 325.209 39.5519 324.593 39.8983C323.977 40.2447 323.269 40.4179 322.47 40.4179C321.577 40.4179 320.796 40.2031 320.126 39.7734C319.457 39.3404 318.936 38.7309 318.563 37.9448C318.193 37.1554 318.008 36.2278 318.008 35.1619C318.008 34.3592 318.115 33.6348 318.328 32.9886C318.541 32.3424 318.842 31.7895 319.232 31.3299C319.625 30.8702 320.09 30.5188 320.626 30.2757C321.162 30.0292 321.755 29.906 322.405 29.906C322.964 29.906 323.476 29.9942 323.939 30.1708C324.405 30.3473 324.815 30.5904 325.168 30.9002C325.524 31.2066 325.815 31.5614 326.042 31.9644C326.272 32.3641 326.427 32.7904 326.507 33.2434H325.547ZM323.304 27.4878H324.143C324.143 27.9641 323.985 28.3505 323.669 28.6469C323.356 28.9434 322.928 29.0916 322.385 29.0916C321.848 29.0916 321.424 28.9434 321.111 28.6469C320.798 28.3505 320.641 27.9641 320.641 27.4878H321.48C321.48 27.7476 321.55 27.9674 321.69 28.1473C321.833 28.3238 322.065 28.4121 322.385 28.4121C322.704 28.4121 322.938 28.3238 323.084 28.1473C323.231 27.9674 323.304 27.7476 323.304 27.4878ZM329.83 30.0459V40.278H328.896V30.0459H329.83ZM329.361 28.7269C329.181 28.7269 329.024 28.6652 328.891 28.542C328.761 28.4154 328.696 28.2639 328.696 28.0873C328.696 27.9108 328.761 27.7609 328.891 27.6377C329.024 27.5111 329.181 27.4478 329.361 27.4478C329.544 27.4478 329.7 27.5111 329.83 27.6377C329.963 27.7609 330.03 27.9108 330.03 28.0873C330.03 28.2639 329.963 28.4154 329.83 28.542C329.7 28.6652 329.544 28.7269 329.361 28.7269ZM336.508 40.278V30.0459H339.96C340.626 30.0459 341.181 30.1624 341.624 30.3956C342.07 30.6287 342.405 30.9468 342.628 31.3499C342.851 31.7529 342.963 32.2109 342.963 32.7238C342.963 33.1502 342.891 33.5149 342.748 33.818C342.605 34.1211 342.41 34.3659 342.163 34.5524C341.917 34.7389 341.642 34.8738 341.339 34.9571V35.037C341.669 35.0604 341.988 35.1769 342.298 35.3868C342.608 35.5933 342.863 35.8831 343.063 36.2561C343.263 36.6292 343.362 37.0755 343.362 37.5951C343.362 38.1114 343.248 38.5727 343.018 38.979C342.788 39.3821 342.435 39.7002 341.959 39.9333C341.486 40.1631 340.883 40.278 340.15 40.278H336.508ZM337.442 39.4387H340.15C340.939 39.4387 341.522 39.2638 341.899 38.9141C342.278 38.5644 342.468 38.1247 342.468 37.5951C342.468 37.2054 342.373 36.8523 342.183 36.5359C341.997 36.2161 341.732 35.963 341.389 35.7765C341.049 35.59 340.65 35.4967 340.19 35.4967H337.442V39.4387ZM337.442 34.6673H340.045C340.448 34.6673 340.801 34.5841 341.104 34.4175C341.407 34.251 341.644 34.0212 341.814 33.728C341.983 33.4349 342.068 33.1002 342.068 32.7238C342.068 32.1809 341.892 31.7396 341.539 31.3998C341.186 31.0567 340.66 30.8852 339.96 30.8852H337.442V34.6673ZM354.006 35.1619C354.006 36.2278 353.816 37.1554 353.436 37.9448C353.056 38.7309 352.533 39.3404 351.867 39.7734C351.204 40.2031 350.442 40.4179 349.579 40.4179C348.716 40.4179 347.952 40.2031 347.286 39.7734C346.623 39.3404 346.102 38.7309 345.722 37.9448C345.346 37.1554 345.157 36.2278 345.157 35.1619C345.157 34.0961 345.346 33.1701 345.722 32.3841C346.102 31.5947 346.625 30.9851 347.291 30.5555C347.957 30.1225 348.72 29.906 349.579 29.906C350.442 29.906 351.204 30.1225 351.867 30.5555C352.533 30.9851 353.056 31.5947 353.436 32.3841C353.816 33.1701 354.006 34.0961 354.006 35.1619ZM353.096 35.1619C353.096 34.246 352.943 33.4616 352.637 32.8087C352.33 32.1526 351.912 31.6513 351.383 31.3049C350.853 30.9585 350.252 30.7853 349.579 30.7853C348.909 30.7853 348.31 30.9585 347.78 31.3049C347.251 31.6513 346.831 32.1509 346.521 32.8037C346.215 33.4566 346.062 34.2427 346.062 35.1619C346.062 36.0779 346.215 36.8623 346.521 37.5152C346.828 38.168 347.246 38.6693 347.775 39.019C348.305 39.3654 348.906 39.5386 349.579 39.5386C350.252 39.5386 350.853 39.3654 351.383 39.019C351.916 38.6726 352.335 38.173 352.642 37.5202C352.948 36.864 353.1 36.0779 353.096 35.1619ZM348.3 28.7269C348.133 28.7269 347.985 28.6636 347.855 28.537C347.725 28.4071 347.66 28.2572 347.66 28.0873C347.66 27.9042 347.725 27.7526 347.855 27.6327C347.985 27.5095 348.133 27.4478 348.3 27.4478C348.483 27.4478 348.635 27.5095 348.755 27.6327C348.878 27.7526 348.939 27.9042 348.939 28.0873C348.939 28.2572 348.878 28.4071 348.755 28.537C348.635 28.6636 348.483 28.7269 348.3 28.7269ZM350.858 28.7269C350.691 28.7269 350.543 28.6636 350.413 28.537C350.283 28.4071 350.218 28.2572 350.218 28.0873C350.218 27.9042 350.283 27.7526 350.413 27.6327C350.543 27.5095 350.691 27.4478 350.858 27.4478C351.041 27.4478 351.193 27.5095 351.313 27.6327C351.436 27.7526 351.497 27.9042 351.497 28.0873C351.497 28.2572 351.436 28.4071 351.313 28.537C351.193 28.6636 351.041 28.7269 350.858 28.7269ZM356.265 40.278V30.0459H357.199V39.4387H362.076V40.278H356.265ZM370.999 30.0459H371.933V36.8207C371.933 37.5168 371.77 38.1397 371.444 38.6893C371.117 39.2355 370.662 39.6668 370.08 39.9833C369.5 40.2964 368.826 40.4529 368.056 40.4529C367.29 40.4529 366.616 40.2947 366.033 39.9783C365.45 39.6618 364.995 39.2305 364.669 38.6843C364.342 38.138 364.179 37.5168 364.179 36.8207V30.0459H365.113V36.7557C365.113 37.2987 365.235 37.7833 365.478 38.2096C365.721 38.6326 366.063 38.9657 366.502 39.2089C366.945 39.452 367.463 39.5736 368.056 39.5736C368.649 39.5736 369.167 39.452 369.61 39.2089C370.053 38.9657 370.394 38.6326 370.634 38.2096C370.877 37.7833 370.999 37.2987 370.999 36.7557V30.0459ZM366.777 28.7269C366.607 28.7269 366.457 28.6636 366.327 28.537C366.201 28.4071 366.138 28.2572 366.138 28.0873C366.138 27.9075 366.201 27.7559 366.327 27.6327C366.457 27.5095 366.607 27.4478 366.777 27.4478C366.96 27.4478 367.112 27.5095 367.232 27.6327C367.355 27.7559 367.417 27.9075 367.417 28.0873C367.417 28.2572 367.355 28.4071 367.232 28.537C367.112 28.6636 366.96 28.7269 366.777 28.7269ZM369.335 28.7269C369.165 28.7269 369.015 28.6636 368.885 28.537C368.759 28.4071 368.696 28.2572 368.696 28.0873C368.696 27.9075 368.759 27.7559 368.885 27.6327C369.015 27.5095 369.165 27.4478 369.335 27.4478C369.518 27.4478 369.67 27.5095 369.79 27.6327C369.913 27.7559 369.975 27.9075 369.975 28.0873C369.975 28.2572 369.913 28.4071 369.79 28.537C369.67 28.6636 369.518 28.7269 369.335 28.7269ZM374.649 30.0459H375.728L379.44 38.9591H379.53L383.242 30.0459H384.321V40.278H383.442V32.0193H383.362L379.91 40.278H379.06L375.608 32.0193H375.528V40.278H374.649V30.0459ZM393.861 30.0459H394.796V36.8207C394.796 37.5168 394.632 38.1397 394.306 38.6893C393.98 39.2355 393.525 39.6668 392.942 39.9833C392.363 40.2964 391.688 40.4529 390.919 40.4529C390.153 40.4529 389.478 40.2947 388.895 39.9783C388.312 39.6618 387.858 39.2305 387.531 38.6843C387.205 38.138 387.042 37.5168 387.042 36.8207V30.0459H387.976V36.7557C387.976 37.2987 388.097 37.7833 388.341 38.2096C388.584 38.6326 388.925 38.9657 389.365 39.2089C389.808 39.452 390.326 39.5736 390.919 39.5736C391.512 39.5736 392.029 39.452 392.472 39.2089C392.915 38.9657 393.257 38.6326 393.497 38.2096C393.74 37.7833 393.861 37.2987 393.861 36.7557V30.0459ZM389.64 28.7269C389.47 28.7269 389.32 28.6636 389.19 28.537C389.063 28.4071 389 28.2572 389 28.0873C389 27.9075 389.063 27.7559 389.19 27.6327C389.32 27.5095 389.47 27.4478 389.64 27.4478C389.823 27.4478 389.974 27.5095 390.094 27.6327C390.218 27.7559 390.279 27.9075 390.279 28.0873C390.279 28.2572 390.218 28.4071 390.094 28.537C389.974 28.6636 389.823 28.7269 389.64 28.7269ZM392.198 28.7269C392.028 28.7269 391.878 28.6636 391.748 28.537C391.621 28.4071 391.558 28.2572 391.558 28.0873C391.558 27.9075 391.621 27.7559 391.748 27.6327C391.878 27.5095 392.028 27.4478 392.198 27.4478C392.381 27.4478 392.532 27.5095 392.652 27.6327C392.776 27.7559 392.837 27.9075 392.837 28.0873C392.837 28.2572 392.776 28.4071 392.652 28.537C392.532 28.6636 392.381 28.7269 392.198 28.7269Z" fill="white"/>
</g>
<defs>
<clipPath id="clip0_4111_6620">
<rect width="397" height="53.5561" fill="white"/>
</clipPath>
</defs>
</svg>
